<mxfile host="app.diagrams.net" agent="Mozilla/5.0 (Windows NT 10.0; Win64; x64) AppleWebKit/537.36 (KHTML, like Gecko) Chrome/118.0.0.0 Safari/537.36" version="28.0.6">
  <diagram name="第 1 页" id="fIbPTTzMzk3BGhx-KFtS">
    <mxGraphModel dx="1388" dy="673" grid="1" gridSize="10" guides="1" tooltips="1" connect="1" arrows="1" fold="1" page="1" pageScale="1" pageWidth="827" pageHeight="1169" math="0" shadow="0">
      <root>
        <mxCell id="0" />
        <mxCell id="1" parent="0" />
        <mxCell id="8vCnK32GKlkzvUL6mrDK-2" style="edgeStyle=orthogonalEdgeStyle;rounded=0;orthogonalLoop=1;jettySize=auto;html=1;exitX=0.5;exitY=1;exitDx=0;exitDy=0;" parent="1" edge="1">
          <mxGeometry relative="1" as="geometry">
            <mxPoint x="255.75" y="60" as="sourcePoint" />
            <mxPoint x="255.75" y="60" as="targetPoint" />
          </mxGeometry>
        </mxCell>
        <mxCell id="8vCnK32GKlkzvUL6mrDK-7" value="" style="group" parent="1" vertex="1" connectable="0">
          <mxGeometry x="130" y="140" width="206.6633333333334" height="190" as="geometry" />
        </mxCell>
        <mxCell id="8vCnK32GKlkzvUL6mrDK-8" value="" style="group" parent="8vCnK32GKlkzvUL6mrDK-7" vertex="1" connectable="0">
          <mxGeometry x="71.67000000000002" width="70" height="63.33333333333334" as="geometry" />
        </mxCell>
        <mxCell id="8vCnK32GKlkzvUL6mrDK-9" value="" style="group" parent="8vCnK32GKlkzvUL6mrDK-8" vertex="1" connectable="0">
          <mxGeometry width="63.33333333333334" height="63.33333333333334" as="geometry" />
        </mxCell>
        <mxCell id="8vCnK32GKlkzvUL6mrDK-10" value="10" style="ellipse;whiteSpace=wrap;html=1;aspect=fixed;fillColor=#E6FFCC;" parent="8vCnK32GKlkzvUL6mrDK-9" vertex="1">
          <mxGeometry width="63.33333333333334" height="63.33333333333334" as="geometry" />
        </mxCell>
        <mxCell id="8vCnK32GKlkzvUL6mrDK-11" value="" style="group" parent="8vCnK32GKlkzvUL6mrDK-7" vertex="1" connectable="0">
          <mxGeometry y="126.66666666666669" width="63.33333333333334" height="63.33333333333334" as="geometry" />
        </mxCell>
        <mxCell id="8vCnK32GKlkzvUL6mrDK-12" value="5,8" style="ellipse;whiteSpace=wrap;html=1;aspect=fixed;fillColor=#CCFF99;" parent="8vCnK32GKlkzvUL6mrDK-11" vertex="1">
          <mxGeometry width="63.33333333333334" height="63.33333333333334" as="geometry" />
        </mxCell>
        <mxCell id="8vCnK32GKlkzvUL6mrDK-13" value="" style="group" parent="8vCnK32GKlkzvUL6mrDK-7" vertex="1" connectable="0">
          <mxGeometry x="143.33000000000004" y="126.66666666666669" width="63.33333333333334" height="63.33333333333334" as="geometry" />
        </mxCell>
        <mxCell id="8vCnK32GKlkzvUL6mrDK-14" value="15,20" style="ellipse;whiteSpace=wrap;html=1;aspect=fixed;fillColor=#CCFF99;" parent="8vCnK32GKlkzvUL6mrDK-13" vertex="1">
          <mxGeometry width="63.33333333333334" height="63.33333333333334" as="geometry" />
        </mxCell>
        <mxCell id="8vCnK32GKlkzvUL6mrDK-15" value="" style="endArrow=none;html=1;rounded=0;entryX=0.201;entryY=0.894;entryDx=0;entryDy=0;entryPerimeter=0;exitX=0.649;exitY=0.02;exitDx=0;exitDy=0;exitPerimeter=0;" parent="8vCnK32GKlkzvUL6mrDK-7" source="8vCnK32GKlkzvUL6mrDK-12" target="8vCnK32GKlkzvUL6mrDK-10" edge="1">
          <mxGeometry width="50" height="50" relative="1" as="geometry">
            <mxPoint x="48.33000000000004" y="126.67000000000002" as="sourcePoint" />
            <mxPoint x="88.33000000000004" y="60" as="targetPoint" />
          </mxGeometry>
        </mxCell>
        <mxCell id="8vCnK32GKlkzvUL6mrDK-16" value="" style="endArrow=none;html=1;rounded=0;entryX=0.776;entryY=0.914;entryDx=0;entryDy=0;entryPerimeter=0;exitX=0.381;exitY=0.028;exitDx=0;exitDy=0;exitPerimeter=0;" parent="8vCnK32GKlkzvUL6mrDK-7" source="8vCnK32GKlkzvUL6mrDK-14" target="8vCnK32GKlkzvUL6mrDK-10" edge="1">
          <mxGeometry width="50" height="50" relative="1" as="geometry">
            <mxPoint x="168.66000000000003" y="127" as="sourcePoint" />
            <mxPoint x="126.66000000000003" y="60" as="targetPoint" />
          </mxGeometry>
        </mxCell>
        <mxCell id="8vCnK32GKlkzvUL6mrDK-31" value="&lt;div&gt;&lt;b&gt;情况1：删除叶子节点的关键字后仍满足最小关键字数要求&lt;/b&gt;&lt;/div&gt;&lt;div&gt;操作：直接删除关键字，无需其他操作&lt;/div&gt;" style="text;strokeColor=none;align=left;fillColor=none;html=1;verticalAlign=middle;whiteSpace=wrap;rounded=0;" parent="1" vertex="1">
          <mxGeometry x="93" y="80" width="320" height="40" as="geometry" />
        </mxCell>
        <mxCell id="8vCnK32GKlkzvUL6mrDK-32" value="" style="group" parent="1" vertex="1" connectable="0">
          <mxGeometry x="490" y="140" width="206.6633333333334" height="190" as="geometry" />
        </mxCell>
        <mxCell id="8vCnK32GKlkzvUL6mrDK-33" value="" style="group" parent="8vCnK32GKlkzvUL6mrDK-32" vertex="1" connectable="0">
          <mxGeometry x="71.67000000000002" width="70" height="63.33333333333334" as="geometry" />
        </mxCell>
        <mxCell id="8vCnK32GKlkzvUL6mrDK-34" value="" style="group" parent="8vCnK32GKlkzvUL6mrDK-33" vertex="1" connectable="0">
          <mxGeometry width="63.33333333333334" height="63.33333333333334" as="geometry" />
        </mxCell>
        <mxCell id="8vCnK32GKlkzvUL6mrDK-35" value="10" style="ellipse;whiteSpace=wrap;html=1;aspect=fixed;fillColor=#E6FFCC;" parent="8vCnK32GKlkzvUL6mrDK-34" vertex="1">
          <mxGeometry width="63.33333333333334" height="63.33333333333334" as="geometry" />
        </mxCell>
        <mxCell id="8vCnK32GKlkzvUL6mrDK-36" value="" style="group" parent="8vCnK32GKlkzvUL6mrDK-32" vertex="1" connectable="0">
          <mxGeometry y="126.66666666666669" width="63.33333333333334" height="63.33333333333334" as="geometry" />
        </mxCell>
        <mxCell id="8vCnK32GKlkzvUL6mrDK-37" value="5" style="ellipse;whiteSpace=wrap;html=1;aspect=fixed;fillColor=#CCFF99;" parent="8vCnK32GKlkzvUL6mrDK-36" vertex="1">
          <mxGeometry width="63.33333333333334" height="63.33333333333334" as="geometry" />
        </mxCell>
        <mxCell id="8vCnK32GKlkzvUL6mrDK-38" value="" style="group" parent="8vCnK32GKlkzvUL6mrDK-32" vertex="1" connectable="0">
          <mxGeometry x="143.33000000000004" y="126.66666666666669" width="63.33333333333334" height="63.33333333333334" as="geometry" />
        </mxCell>
        <mxCell id="8vCnK32GKlkzvUL6mrDK-39" value="15,20" style="ellipse;whiteSpace=wrap;html=1;aspect=fixed;fillColor=#CCFF99;" parent="8vCnK32GKlkzvUL6mrDK-38" vertex="1">
          <mxGeometry width="63.33333333333334" height="63.33333333333334" as="geometry" />
        </mxCell>
        <mxCell id="8vCnK32GKlkzvUL6mrDK-40" value="" style="endArrow=none;html=1;rounded=0;entryX=0.201;entryY=0.894;entryDx=0;entryDy=0;entryPerimeter=0;exitX=0.649;exitY=0.02;exitDx=0;exitDy=0;exitPerimeter=0;" parent="8vCnK32GKlkzvUL6mrDK-32" source="8vCnK32GKlkzvUL6mrDK-37" target="8vCnK32GKlkzvUL6mrDK-35" edge="1">
          <mxGeometry width="50" height="50" relative="1" as="geometry">
            <mxPoint x="48.33000000000004" y="126.67000000000002" as="sourcePoint" />
            <mxPoint x="88.33000000000004" y="60" as="targetPoint" />
          </mxGeometry>
        </mxCell>
        <mxCell id="8vCnK32GKlkzvUL6mrDK-41" value="" style="endArrow=none;html=1;rounded=0;entryX=0.776;entryY=0.914;entryDx=0;entryDy=0;entryPerimeter=0;exitX=0.381;exitY=0.028;exitDx=0;exitDy=0;exitPerimeter=0;" parent="8vCnK32GKlkzvUL6mrDK-32" source="8vCnK32GKlkzvUL6mrDK-39" target="8vCnK32GKlkzvUL6mrDK-35" edge="1">
          <mxGeometry width="50" height="50" relative="1" as="geometry">
            <mxPoint x="168.66000000000003" y="127" as="sourcePoint" />
            <mxPoint x="126.66000000000003" y="60" as="targetPoint" />
          </mxGeometry>
        </mxCell>
        <mxCell id="8vCnK32GKlkzvUL6mrDK-44" value="" style="html=1;shadow=0;dashed=0;align=center;verticalAlign=middle;shape=mxgraph.arrows2.arrow;dy=0.67;dx=20;notch=0;" parent="1" vertex="1">
          <mxGeometry x="370" y="225" width="110" height="20" as="geometry" />
        </mxCell>
        <mxCell id="8vCnK32GKlkzvUL6mrDK-45" value="&lt;b&gt;删除8&lt;/b&gt;" style="text;strokeColor=none;align=center;fillColor=none;html=1;verticalAlign=middle;whiteSpace=wrap;rounded=0;" parent="1" vertex="1">
          <mxGeometry x="405" y="205" width="40" height="20" as="geometry" />
        </mxCell>
        <mxCell id="8vCnK32GKlkzvUL6mrDK-46" value="&lt;div&gt;&lt;b&gt;情况2：删除后关键字数不足，但相邻兄弟节点有富余&lt;/b&gt;&lt;/div&gt;&lt;div&gt;操作：从兄弟节点借一个关键字（通过父节点周转）&lt;/div&gt;" style="text;strokeColor=none;align=left;fillColor=none;html=1;verticalAlign=middle;whiteSpace=wrap;rounded=0;" parent="1" vertex="1">
          <mxGeometry x="93" y="420" width="290" height="40" as="geometry" />
        </mxCell>
        <mxCell id="8vCnK32GKlkzvUL6mrDK-47" value="&lt;div&gt;子情况2a：左兄弟有富余&lt;/div&gt;&lt;div&gt;1、将父节点中分隔的关键字下移到当前节点&lt;/div&gt;&lt;div&gt;2、将左兄弟的最大关键字上移到父节点&lt;/div&gt;" style="text;strokeColor=none;align=left;fillColor=none;html=1;verticalAlign=middle;whiteSpace=wrap;rounded=0;" parent="1" vertex="1">
          <mxGeometry x="110" y="670" width="250" height="50" as="geometry" />
        </mxCell>
        <mxCell id="8vCnK32GKlkzvUL6mrDK-61" value="" style="group" parent="1" vertex="1" connectable="0">
          <mxGeometry x="110" y="470" width="228.33333333333337" height="190.00333333333333" as="geometry" />
        </mxCell>
        <mxCell id="8vCnK32GKlkzvUL6mrDK-49" value="" style="group" parent="8vCnK32GKlkzvUL6mrDK-61" vertex="1" connectable="0">
          <mxGeometry x="81.67000000000002" width="70" height="63.33333333333334" as="geometry" />
        </mxCell>
        <mxCell id="8vCnK32GKlkzvUL6mrDK-50" value="" style="group" parent="8vCnK32GKlkzvUL6mrDK-49" vertex="1" connectable="0">
          <mxGeometry width="63.33333333333334" height="63.33333333333334" as="geometry" />
        </mxCell>
        <mxCell id="8vCnK32GKlkzvUL6mrDK-51" value="10,20" style="ellipse;whiteSpace=wrap;html=1;aspect=fixed;fillColor=#E6FFCC;" parent="8vCnK32GKlkzvUL6mrDK-50" vertex="1">
          <mxGeometry width="63.33333333333334" height="63.33333333333334" as="geometry" />
        </mxCell>
        <mxCell id="8vCnK32GKlkzvUL6mrDK-52" value="" style="group" parent="8vCnK32GKlkzvUL6mrDK-61" vertex="1" connectable="0">
          <mxGeometry y="126.66666666666674" width="63.33333333333334" height="63.33333333333334" as="geometry" />
        </mxCell>
        <mxCell id="8vCnK32GKlkzvUL6mrDK-53" value="5,8" style="ellipse;whiteSpace=wrap;html=1;aspect=fixed;fillColor=#CCFF99;" parent="8vCnK32GKlkzvUL6mrDK-52" vertex="1">
          <mxGeometry width="63.33333333333334" height="63.33333333333334" as="geometry" />
        </mxCell>
        <mxCell id="8vCnK32GKlkzvUL6mrDK-54" value="" style="group" parent="8vCnK32GKlkzvUL6mrDK-61" vertex="1" connectable="0">
          <mxGeometry x="165.00000000000006" y="126.66666666666674" width="63.33333333333334" height="63.33333333333334" as="geometry" />
        </mxCell>
        <mxCell id="8vCnK32GKlkzvUL6mrDK-55" value="25,30" style="ellipse;whiteSpace=wrap;html=1;aspect=fixed;fillColor=#CCFF99;" parent="8vCnK32GKlkzvUL6mrDK-54" vertex="1">
          <mxGeometry width="63.33333333333334" height="63.33333333333334" as="geometry" />
        </mxCell>
        <mxCell id="8vCnK32GKlkzvUL6mrDK-56" value="" style="endArrow=none;html=1;rounded=0;entryX=0.262;entryY=0.933;entryDx=0;entryDy=0;entryPerimeter=0;exitX=0.649;exitY=0.02;exitDx=0;exitDy=0;exitPerimeter=0;" parent="8vCnK32GKlkzvUL6mrDK-61" source="8vCnK32GKlkzvUL6mrDK-53" target="8vCnK32GKlkzvUL6mrDK-51" edge="1">
          <mxGeometry width="50" height="50" relative="1" as="geometry">
            <mxPoint x="58.33000000000004" y="126.67000000000007" as="sourcePoint" />
            <mxPoint x="98.33000000000004" y="60" as="targetPoint" />
          </mxGeometry>
        </mxCell>
        <mxCell id="8vCnK32GKlkzvUL6mrDK-57" value="" style="endArrow=none;html=1;rounded=0;entryX=0.767;entryY=0.931;entryDx=0;entryDy=0;entryPerimeter=0;exitX=0.381;exitY=0.028;exitDx=0;exitDy=0;exitPerimeter=0;" parent="8vCnK32GKlkzvUL6mrDK-61" source="8vCnK32GKlkzvUL6mrDK-55" target="8vCnK32GKlkzvUL6mrDK-51" edge="1">
          <mxGeometry width="50" height="50" relative="1" as="geometry">
            <mxPoint x="178.66000000000003" y="127" as="sourcePoint" />
            <mxPoint x="136.66000000000003" y="60" as="targetPoint" />
          </mxGeometry>
        </mxCell>
        <mxCell id="8vCnK32GKlkzvUL6mrDK-58" value="" style="group" parent="8vCnK32GKlkzvUL6mrDK-61" vertex="1" connectable="0">
          <mxGeometry x="85" y="126.66999999999996" width="63.33333333333334" height="63.33333333333334" as="geometry" />
        </mxCell>
        <mxCell id="8vCnK32GKlkzvUL6mrDK-59" value="15" style="ellipse;whiteSpace=wrap;html=1;aspect=fixed;fillColor=#CCFF99;" parent="8vCnK32GKlkzvUL6mrDK-58" vertex="1">
          <mxGeometry width="63.33333333333334" height="63.33333333333334" as="geometry" />
        </mxCell>
        <mxCell id="8vCnK32GKlkzvUL6mrDK-60" value="" style="endArrow=none;html=1;rounded=0;entryX=0.529;entryY=0.995;entryDx=0;entryDy=0;exitX=0.5;exitY=0;exitDx=0;exitDy=0;entryPerimeter=0;" parent="8vCnK32GKlkzvUL6mrDK-61" source="8vCnK32GKlkzvUL6mrDK-59" target="8vCnK32GKlkzvUL6mrDK-51" edge="1">
          <mxGeometry width="50" height="50" relative="1" as="geometry">
            <mxPoint x="90" y="151" as="sourcePoint" />
            <mxPoint x="143" y="80" as="targetPoint" />
          </mxGeometry>
        </mxCell>
        <mxCell id="8vCnK32GKlkzvUL6mrDK-62" value="" style="group" parent="1" vertex="1" connectable="0">
          <mxGeometry x="490" y="480" width="228.33333333333337" height="190.00333333333333" as="geometry" />
        </mxCell>
        <mxCell id="8vCnK32GKlkzvUL6mrDK-63" value="" style="group" parent="8vCnK32GKlkzvUL6mrDK-62" vertex="1" connectable="0">
          <mxGeometry x="81.67000000000002" width="70" height="63.33333333333334" as="geometry" />
        </mxCell>
        <mxCell id="8vCnK32GKlkzvUL6mrDK-64" value="" style="group" parent="8vCnK32GKlkzvUL6mrDK-63" vertex="1" connectable="0">
          <mxGeometry width="63.33333333333334" height="63.33333333333334" as="geometry" />
        </mxCell>
        <mxCell id="8vCnK32GKlkzvUL6mrDK-65" value="8,20" style="ellipse;whiteSpace=wrap;html=1;aspect=fixed;fillColor=#E6FFCC;" parent="8vCnK32GKlkzvUL6mrDK-64" vertex="1">
          <mxGeometry width="63.33333333333334" height="63.33333333333334" as="geometry" />
        </mxCell>
        <mxCell id="8vCnK32GKlkzvUL6mrDK-66" value="" style="group" parent="8vCnK32GKlkzvUL6mrDK-62" vertex="1" connectable="0">
          <mxGeometry y="126.66666666666674" width="63.33333333333334" height="63.33333333333334" as="geometry" />
        </mxCell>
        <mxCell id="8vCnK32GKlkzvUL6mrDK-67" value="5" style="ellipse;whiteSpace=wrap;html=1;aspect=fixed;fillColor=#CCFF99;" parent="8vCnK32GKlkzvUL6mrDK-66" vertex="1">
          <mxGeometry width="63.33333333333334" height="63.33333333333334" as="geometry" />
        </mxCell>
        <mxCell id="8vCnK32GKlkzvUL6mrDK-68" value="" style="group" parent="8vCnK32GKlkzvUL6mrDK-62" vertex="1" connectable="0">
          <mxGeometry x="165.00000000000006" y="126.66666666666674" width="63.33333333333334" height="63.33333333333334" as="geometry" />
        </mxCell>
        <mxCell id="8vCnK32GKlkzvUL6mrDK-69" value="25,30" style="ellipse;whiteSpace=wrap;html=1;aspect=fixed;fillColor=#CCFF99;" parent="8vCnK32GKlkzvUL6mrDK-68" vertex="1">
          <mxGeometry width="63.33333333333334" height="63.33333333333334" as="geometry" />
        </mxCell>
        <mxCell id="8vCnK32GKlkzvUL6mrDK-70" value="" style="endArrow=none;html=1;rounded=0;entryX=0.262;entryY=0.933;entryDx=0;entryDy=0;entryPerimeter=0;exitX=0.649;exitY=0.02;exitDx=0;exitDy=0;exitPerimeter=0;" parent="8vCnK32GKlkzvUL6mrDK-62" source="8vCnK32GKlkzvUL6mrDK-67" target="8vCnK32GKlkzvUL6mrDK-65" edge="1">
          <mxGeometry width="50" height="50" relative="1" as="geometry">
            <mxPoint x="58.33000000000004" y="126.67000000000007" as="sourcePoint" />
            <mxPoint x="98.33000000000004" y="60" as="targetPoint" />
          </mxGeometry>
        </mxCell>
        <mxCell id="8vCnK32GKlkzvUL6mrDK-71" value="" style="endArrow=none;html=1;rounded=0;entryX=0.767;entryY=0.931;entryDx=0;entryDy=0;entryPerimeter=0;exitX=0.381;exitY=0.028;exitDx=0;exitDy=0;exitPerimeter=0;" parent="8vCnK32GKlkzvUL6mrDK-62" source="8vCnK32GKlkzvUL6mrDK-69" target="8vCnK32GKlkzvUL6mrDK-65" edge="1">
          <mxGeometry width="50" height="50" relative="1" as="geometry">
            <mxPoint x="178.66000000000003" y="127" as="sourcePoint" />
            <mxPoint x="136.66000000000003" y="60" as="targetPoint" />
          </mxGeometry>
        </mxCell>
        <mxCell id="8vCnK32GKlkzvUL6mrDK-72" value="" style="group" parent="8vCnK32GKlkzvUL6mrDK-62" vertex="1" connectable="0">
          <mxGeometry x="85" y="126.66999999999996" width="63.33333333333334" height="63.33333333333334" as="geometry" />
        </mxCell>
        <mxCell id="8vCnK32GKlkzvUL6mrDK-73" value="10" style="ellipse;whiteSpace=wrap;html=1;aspect=fixed;fillColor=#CCFF99;" parent="8vCnK32GKlkzvUL6mrDK-72" vertex="1">
          <mxGeometry width="63.33333333333334" height="63.33333333333334" as="geometry" />
        </mxCell>
        <mxCell id="8vCnK32GKlkzvUL6mrDK-74" value="" style="endArrow=none;html=1;rounded=0;entryX=0.529;entryY=0.995;entryDx=0;entryDy=0;exitX=0.5;exitY=0;exitDx=0;exitDy=0;entryPerimeter=0;" parent="8vCnK32GKlkzvUL6mrDK-62" source="8vCnK32GKlkzvUL6mrDK-73" target="8vCnK32GKlkzvUL6mrDK-65" edge="1">
          <mxGeometry width="50" height="50" relative="1" as="geometry">
            <mxPoint x="90" y="151" as="sourcePoint" />
            <mxPoint x="143" y="80" as="targetPoint" />
          </mxGeometry>
        </mxCell>
        <mxCell id="8vCnK32GKlkzvUL6mrDK-75" value="" style="html=1;shadow=0;dashed=0;align=center;verticalAlign=middle;shape=mxgraph.arrows2.arrow;dy=0.67;dx=20;notch=0;" parent="1" vertex="1">
          <mxGeometry x="374.81" y="555" width="110" height="20" as="geometry" />
        </mxCell>
        <mxCell id="8vCnK32GKlkzvUL6mrDK-76" value="&lt;b&gt;删除15&lt;/b&gt;" style="text;strokeColor=none;align=center;fillColor=none;html=1;verticalAlign=middle;whiteSpace=wrap;rounded=0;" parent="1" vertex="1">
          <mxGeometry x="400" y="535" width="50" height="20" as="geometry" />
        </mxCell>
        <mxCell id="8vCnK32GKlkzvUL6mrDK-77" value="" style="group" parent="1" vertex="1" connectable="0">
          <mxGeometry x="110" y="810" width="228.33333333333337" height="190.00333333333333" as="geometry" />
        </mxCell>
        <mxCell id="8vCnK32GKlkzvUL6mrDK-78" value="" style="group" parent="8vCnK32GKlkzvUL6mrDK-77" vertex="1" connectable="0">
          <mxGeometry x="81.67000000000002" width="70" height="63.33333333333334" as="geometry" />
        </mxCell>
        <mxCell id="8vCnK32GKlkzvUL6mrDK-79" value="" style="group" parent="8vCnK32GKlkzvUL6mrDK-78" vertex="1" connectable="0">
          <mxGeometry width="63.33333333333334" height="63.33333333333334" as="geometry" />
        </mxCell>
        <mxCell id="8vCnK32GKlkzvUL6mrDK-80" value="10,20" style="ellipse;whiteSpace=wrap;html=1;aspect=fixed;fillColor=#E6FFCC;" parent="8vCnK32GKlkzvUL6mrDK-79" vertex="1">
          <mxGeometry width="63.33333333333334" height="63.33333333333334" as="geometry" />
        </mxCell>
        <mxCell id="8vCnK32GKlkzvUL6mrDK-81" value="" style="group" parent="8vCnK32GKlkzvUL6mrDK-77" vertex="1" connectable="0">
          <mxGeometry y="126.66666666666674" width="63.33333333333334" height="63.33333333333334" as="geometry" />
        </mxCell>
        <mxCell id="8vCnK32GKlkzvUL6mrDK-82" value="5" style="ellipse;whiteSpace=wrap;html=1;aspect=fixed;fillColor=#CCFF99;" parent="8vCnK32GKlkzvUL6mrDK-81" vertex="1">
          <mxGeometry width="63.33333333333334" height="63.33333333333334" as="geometry" />
        </mxCell>
        <mxCell id="8vCnK32GKlkzvUL6mrDK-83" value="" style="group" parent="8vCnK32GKlkzvUL6mrDK-77" vertex="1" connectable="0">
          <mxGeometry x="165.00000000000006" y="126.66666666666674" width="63.33333333333334" height="63.33333333333334" as="geometry" />
        </mxCell>
        <mxCell id="8vCnK32GKlkzvUL6mrDK-84" value="25,28,30" style="ellipse;whiteSpace=wrap;html=1;aspect=fixed;fillColor=#CCFF99;" parent="8vCnK32GKlkzvUL6mrDK-83" vertex="1">
          <mxGeometry width="63.33333333333334" height="63.33333333333334" as="geometry" />
        </mxCell>
        <mxCell id="8vCnK32GKlkzvUL6mrDK-85" value="" style="endArrow=none;html=1;rounded=0;entryX=0.262;entryY=0.933;entryDx=0;entryDy=0;entryPerimeter=0;exitX=0.649;exitY=0.02;exitDx=0;exitDy=0;exitPerimeter=0;" parent="8vCnK32GKlkzvUL6mrDK-77" source="8vCnK32GKlkzvUL6mrDK-82" target="8vCnK32GKlkzvUL6mrDK-80" edge="1">
          <mxGeometry width="50" height="50" relative="1" as="geometry">
            <mxPoint x="58.33000000000004" y="126.67000000000007" as="sourcePoint" />
            <mxPoint x="98.33000000000004" y="60" as="targetPoint" />
          </mxGeometry>
        </mxCell>
        <mxCell id="8vCnK32GKlkzvUL6mrDK-86" value="" style="endArrow=none;html=1;rounded=0;entryX=0.767;entryY=0.931;entryDx=0;entryDy=0;entryPerimeter=0;exitX=0.381;exitY=0.028;exitDx=0;exitDy=0;exitPerimeter=0;" parent="8vCnK32GKlkzvUL6mrDK-77" source="8vCnK32GKlkzvUL6mrDK-84" target="8vCnK32GKlkzvUL6mrDK-80" edge="1">
          <mxGeometry width="50" height="50" relative="1" as="geometry">
            <mxPoint x="178.66000000000003" y="127" as="sourcePoint" />
            <mxPoint x="136.66000000000003" y="60" as="targetPoint" />
          </mxGeometry>
        </mxCell>
        <mxCell id="8vCnK32GKlkzvUL6mrDK-87" value="" style="group" parent="8vCnK32GKlkzvUL6mrDK-77" vertex="1" connectable="0">
          <mxGeometry x="85" y="126.66999999999996" width="63.33333333333334" height="63.33333333333334" as="geometry" />
        </mxCell>
        <mxCell id="8vCnK32GKlkzvUL6mrDK-88" value="15" style="ellipse;whiteSpace=wrap;html=1;aspect=fixed;fillColor=#CCFF99;" parent="8vCnK32GKlkzvUL6mrDK-87" vertex="1">
          <mxGeometry width="63.33333333333334" height="63.33333333333334" as="geometry" />
        </mxCell>
        <mxCell id="8vCnK32GKlkzvUL6mrDK-89" value="" style="endArrow=none;html=1;rounded=0;entryX=0.529;entryY=0.995;entryDx=0;entryDy=0;exitX=0.5;exitY=0;exitDx=0;exitDy=0;entryPerimeter=0;" parent="8vCnK32GKlkzvUL6mrDK-77" source="8vCnK32GKlkzvUL6mrDK-88" target="8vCnK32GKlkzvUL6mrDK-80" edge="1">
          <mxGeometry width="50" height="50" relative="1" as="geometry">
            <mxPoint x="90" y="151" as="sourcePoint" />
            <mxPoint x="143" y="80" as="targetPoint" />
          </mxGeometry>
        </mxCell>
        <mxCell id="8vCnK32GKlkzvUL6mrDK-90" value="&lt;div&gt;子情况2b：右兄弟有富余&lt;/div&gt;&lt;div&gt;1、将父节点中分隔的关键字下移到当前节点&lt;/div&gt;&lt;div&gt;2、将右兄弟的最小关键字上移到父节点&lt;/div&gt;" style="text;strokeColor=none;align=left;fillColor=none;html=1;verticalAlign=middle;whiteSpace=wrap;rounded=0;" parent="1" vertex="1">
          <mxGeometry x="108.33" y="1010" width="250" height="50" as="geometry" />
        </mxCell>
        <mxCell id="8vCnK32GKlkzvUL6mrDK-91" value="" style="html=1;shadow=0;dashed=0;align=center;verticalAlign=middle;shape=mxgraph.arrows2.arrow;dy=0.67;dx=20;notch=0;" parent="1" vertex="1">
          <mxGeometry x="374.81" y="890" width="110" height="20" as="geometry" />
        </mxCell>
        <mxCell id="8vCnK32GKlkzvUL6mrDK-92" value="&lt;b&gt;删除15&lt;/b&gt;" style="text;strokeColor=none;align=center;fillColor=none;html=1;verticalAlign=middle;whiteSpace=wrap;rounded=0;" parent="1" vertex="1">
          <mxGeometry x="400" y="870" width="50" height="20" as="geometry" />
        </mxCell>
        <mxCell id="8vCnK32GKlkzvUL6mrDK-93" value="" style="group" parent="1" vertex="1" connectable="0">
          <mxGeometry x="490" y="810" width="228.33333333333337" height="190.00333333333333" as="geometry" />
        </mxCell>
        <mxCell id="8vCnK32GKlkzvUL6mrDK-94" value="" style="group" parent="8vCnK32GKlkzvUL6mrDK-93" vertex="1" connectable="0">
          <mxGeometry x="81.67000000000002" width="70" height="63.33333333333334" as="geometry" />
        </mxCell>
        <mxCell id="8vCnK32GKlkzvUL6mrDK-95" value="" style="group" parent="8vCnK32GKlkzvUL6mrDK-94" vertex="1" connectable="0">
          <mxGeometry width="63.33333333333334" height="63.33333333333334" as="geometry" />
        </mxCell>
        <mxCell id="8vCnK32GKlkzvUL6mrDK-96" value="10,25" style="ellipse;whiteSpace=wrap;html=1;aspect=fixed;fillColor=#E6FFCC;" parent="8vCnK32GKlkzvUL6mrDK-95" vertex="1">
          <mxGeometry width="63.33333333333334" height="63.33333333333334" as="geometry" />
        </mxCell>
        <mxCell id="8vCnK32GKlkzvUL6mrDK-97" value="" style="group" parent="8vCnK32GKlkzvUL6mrDK-93" vertex="1" connectable="0">
          <mxGeometry y="126.66666666666674" width="63.33333333333334" height="63.33333333333334" as="geometry" />
        </mxCell>
        <mxCell id="8vCnK32GKlkzvUL6mrDK-98" value="5" style="ellipse;whiteSpace=wrap;html=1;aspect=fixed;fillColor=#CCFF99;" parent="8vCnK32GKlkzvUL6mrDK-97" vertex="1">
          <mxGeometry width="63.33333333333334" height="63.33333333333334" as="geometry" />
        </mxCell>
        <mxCell id="8vCnK32GKlkzvUL6mrDK-99" value="" style="group" parent="8vCnK32GKlkzvUL6mrDK-93" vertex="1" connectable="0">
          <mxGeometry x="165.00000000000006" y="126.66666666666674" width="63.33333333333334" height="63.33333333333334" as="geometry" />
        </mxCell>
        <mxCell id="8vCnK32GKlkzvUL6mrDK-100" value="28,30" style="ellipse;whiteSpace=wrap;html=1;aspect=fixed;fillColor=#CCFF99;" parent="8vCnK32GKlkzvUL6mrDK-99" vertex="1">
          <mxGeometry width="63.33333333333334" height="63.33333333333334" as="geometry" />
        </mxCell>
        <mxCell id="8vCnK32GKlkzvUL6mrDK-101" value="" style="endArrow=none;html=1;rounded=0;entryX=0.262;entryY=0.933;entryDx=0;entryDy=0;entryPerimeter=0;exitX=0.649;exitY=0.02;exitDx=0;exitDy=0;exitPerimeter=0;" parent="8vCnK32GKlkzvUL6mrDK-93" source="8vCnK32GKlkzvUL6mrDK-98" target="8vCnK32GKlkzvUL6mrDK-96" edge="1">
          <mxGeometry width="50" height="50" relative="1" as="geometry">
            <mxPoint x="58.33000000000004" y="126.67000000000007" as="sourcePoint" />
            <mxPoint x="98.33000000000004" y="60" as="targetPoint" />
          </mxGeometry>
        </mxCell>
        <mxCell id="8vCnK32GKlkzvUL6mrDK-102" value="" style="endArrow=none;html=1;rounded=0;entryX=0.767;entryY=0.931;entryDx=0;entryDy=0;entryPerimeter=0;exitX=0.381;exitY=0.028;exitDx=0;exitDy=0;exitPerimeter=0;" parent="8vCnK32GKlkzvUL6mrDK-93" source="8vCnK32GKlkzvUL6mrDK-100" target="8vCnK32GKlkzvUL6mrDK-96" edge="1">
          <mxGeometry width="50" height="50" relative="1" as="geometry">
            <mxPoint x="178.66000000000003" y="127" as="sourcePoint" />
            <mxPoint x="136.66000000000003" y="60" as="targetPoint" />
          </mxGeometry>
        </mxCell>
        <mxCell id="8vCnK32GKlkzvUL6mrDK-103" value="" style="group" parent="8vCnK32GKlkzvUL6mrDK-93" vertex="1" connectable="0">
          <mxGeometry x="85" y="126.66999999999996" width="63.33333333333334" height="63.33333333333334" as="geometry" />
        </mxCell>
        <mxCell id="8vCnK32GKlkzvUL6mrDK-104" value="20" style="ellipse;whiteSpace=wrap;html=1;aspect=fixed;fillColor=#CCFF99;" parent="8vCnK32GKlkzvUL6mrDK-103" vertex="1">
          <mxGeometry width="63.33333333333334" height="63.33333333333334" as="geometry" />
        </mxCell>
        <mxCell id="8vCnK32GKlkzvUL6mrDK-105" value="" style="endArrow=none;html=1;rounded=0;entryX=0.529;entryY=0.995;entryDx=0;entryDy=0;exitX=0.5;exitY=0;exitDx=0;exitDy=0;entryPerimeter=0;" parent="8vCnK32GKlkzvUL6mrDK-93" source="8vCnK32GKlkzvUL6mrDK-104" target="8vCnK32GKlkzvUL6mrDK-96" edge="1">
          <mxGeometry width="50" height="50" relative="1" as="geometry">
            <mxPoint x="90" y="151" as="sourcePoint" />
            <mxPoint x="143" y="80" as="targetPoint" />
          </mxGeometry>
        </mxCell>
        <mxCell id="8vCnK32GKlkzvUL6mrDK-106" value="&lt;div&gt;&lt;b&gt;情况3：删除后关键字数不足，且相邻兄弟节点也无富余&lt;/b&gt;&lt;/div&gt;&lt;div&gt;操作：将当前节点与一个兄弟节点及父节点的分隔关键字合并&lt;/div&gt;" style="text;strokeColor=none;align=left;fillColor=none;html=1;verticalAlign=middle;whiteSpace=wrap;rounded=0;" parent="1" vertex="1">
          <mxGeometry x="93" y="1260" width="330" height="40" as="geometry" />
        </mxCell>
        <mxCell id="8vCnK32GKlkzvUL6mrDK-107" value="&lt;div&gt;子情况3a：与左兄弟合并&lt;/div&gt;&lt;div&gt;1、将父节点分隔关键字下移到左兄弟&lt;/div&gt;&lt;div&gt;2、将当前节点内容合并到左兄弟&lt;/div&gt;&lt;div&gt;3、删除当前节点&lt;/div&gt;" style="text;strokeColor=none;align=left;fillColor=none;html=1;verticalAlign=middle;whiteSpace=wrap;rounded=0;" parent="1" vertex="1">
          <mxGeometry x="110" y="1560" width="211.67" height="70" as="geometry" />
        </mxCell>
        <mxCell id="PFpXIr5WL7vh2AT7sFhG-1" value="" style="group" vertex="1" connectable="0" parent="1">
          <mxGeometry x="93" y="1310" width="305.8181818181818" height="233.8181818181818" as="geometry" />
        </mxCell>
        <mxCell id="PFpXIr5WL7vh2AT7sFhG-2" value="10,20,30" style="ellipse;whiteSpace=wrap;html=1;aspect=fixed;fillColor=#E6FFCC;" vertex="1" parent="PFpXIr5WL7vh2AT7sFhG-1">
          <mxGeometry x="117.41000000000003" width="64.81818181818181" height="64.81818181818181" as="geometry" />
        </mxCell>
        <mxCell id="PFpXIr5WL7vh2AT7sFhG-3" value="5" style="ellipse;whiteSpace=wrap;html=1;aspect=fixed;fillColor=#CCFF99;" vertex="1" parent="PFpXIr5WL7vh2AT7sFhG-1">
          <mxGeometry y="169" width="64.81818181818181" height="64.81818181818181" as="geometry" />
        </mxCell>
        <mxCell id="PFpXIr5WL7vh2AT7sFhG-4" value="25" style="ellipse;whiteSpace=wrap;html=1;aspect=fixed;fillColor=#CCFF99;" vertex="1" parent="PFpXIr5WL7vh2AT7sFhG-1">
          <mxGeometry x="160" y="169" width="64.81818181818181" height="64.81818181818181" as="geometry" />
        </mxCell>
        <mxCell id="PFpXIr5WL7vh2AT7sFhG-5" value="" style="endArrow=none;html=1;rounded=0;exitX=0.594;exitY=0.015;exitDx=0;exitDy=0;exitPerimeter=0;entryX=0.314;entryY=0.967;entryDx=0;entryDy=0;entryPerimeter=0;" edge="1" parent="PFpXIr5WL7vh2AT7sFhG-1" source="PFpXIr5WL7vh2AT7sFhG-3" target="PFpXIr5WL7vh2AT7sFhG-2">
          <mxGeometry width="50" height="50" relative="1" as="geometry">
            <mxPoint x="102.23000000000002" y="150" as="sourcePoint" />
            <mxPoint x="152.23000000000002" y="60" as="targetPoint" />
          </mxGeometry>
        </mxCell>
        <mxCell id="PFpXIr5WL7vh2AT7sFhG-6" value="" style="endArrow=none;html=1;rounded=0;exitX=0.457;exitY=0.005;exitDx=0;exitDy=0;entryX=0.565;entryY=0.992;entryDx=0;entryDy=0;entryPerimeter=0;exitPerimeter=0;" edge="1" parent="PFpXIr5WL7vh2AT7sFhG-1" source="PFpXIr5WL7vh2AT7sFhG-4" target="PFpXIr5WL7vh2AT7sFhG-2">
          <mxGeometry width="50" height="50" relative="1" as="geometry">
            <mxPoint x="233.23000000000002" y="150" as="sourcePoint" />
            <mxPoint x="182.23000000000002" y="61" as="targetPoint" />
          </mxGeometry>
        </mxCell>
        <mxCell id="PFpXIr5WL7vh2AT7sFhG-7" value="15" style="ellipse;whiteSpace=wrap;html=1;aspect=fixed;fillColor=#CCFF99;" vertex="1" parent="PFpXIr5WL7vh2AT7sFhG-1">
          <mxGeometry x="79.99999999999997" y="169" width="64.81818181818181" height="64.81818181818181" as="geometry" />
        </mxCell>
        <mxCell id="PFpXIr5WL7vh2AT7sFhG-8" value="" style="endArrow=none;html=1;rounded=0;exitX=0.5;exitY=0;exitDx=0;exitDy=0;entryX=0.439;entryY=0.992;entryDx=0;entryDy=0;entryPerimeter=0;" edge="1" parent="PFpXIr5WL7vh2AT7sFhG-1" source="PFpXIr5WL7vh2AT7sFhG-7" target="PFpXIr5WL7vh2AT7sFhG-2">
          <mxGeometry width="50" height="50" relative="1" as="geometry">
            <mxPoint x="170" y="210" as="sourcePoint" />
            <mxPoint x="233" y="120" as="targetPoint" />
          </mxGeometry>
        </mxCell>
        <mxCell id="PFpXIr5WL7vh2AT7sFhG-9" value="35,40" style="ellipse;whiteSpace=wrap;html=1;aspect=fixed;fillColor=#CCFF99;" vertex="1" parent="PFpXIr5WL7vh2AT7sFhG-1">
          <mxGeometry x="241" y="169" width="64.81818181818181" height="64.81818181818181" as="geometry" />
        </mxCell>
        <mxCell id="PFpXIr5WL7vh2AT7sFhG-10" value="" style="endArrow=none;html=1;rounded=0;exitX=0.286;exitY=0.057;exitDx=0;exitDy=0;entryX=0.692;entryY=0.967;entryDx=0;entryDy=0;entryPerimeter=0;exitPerimeter=0;" edge="1" parent="PFpXIr5WL7vh2AT7sFhG-1" source="PFpXIr5WL7vh2AT7sFhG-9" target="PFpXIr5WL7vh2AT7sFhG-2">
          <mxGeometry width="50" height="50" relative="1" as="geometry">
            <mxPoint x="260" y="140" as="sourcePoint" />
            <mxPoint x="192" y="51" as="targetPoint" />
          </mxGeometry>
        </mxCell>
        <mxCell id="PFpXIr5WL7vh2AT7sFhG-24" value="" style="html=1;shadow=0;dashed=0;align=center;verticalAlign=middle;shape=mxgraph.arrows2.arrow;dy=0.67;dx=20;notch=0;" vertex="1" parent="1">
          <mxGeometry x="374.81" y="1390" width="110" height="20" as="geometry" />
        </mxCell>
        <mxCell id="PFpXIr5WL7vh2AT7sFhG-25" value="&lt;b&gt;删除15&lt;/b&gt;" style="text;strokeColor=none;align=center;fillColor=none;html=1;verticalAlign=middle;whiteSpace=wrap;rounded=0;" vertex="1" parent="1">
          <mxGeometry x="400" y="1370" width="50" height="20" as="geometry" />
        </mxCell>
        <mxCell id="PFpXIr5WL7vh2AT7sFhG-26" value="" style="group" vertex="1" connectable="0" parent="1">
          <mxGeometry x="490" y="1320" width="228.33333333333337" height="220.00333333333333" as="geometry" />
        </mxCell>
        <mxCell id="PFpXIr5WL7vh2AT7sFhG-12" value="" style="group" vertex="1" connectable="0" parent="PFpXIr5WL7vh2AT7sFhG-26">
          <mxGeometry x="81.67000000000007" width="70" height="63.33333333333334" as="geometry" />
        </mxCell>
        <mxCell id="PFpXIr5WL7vh2AT7sFhG-13" value="" style="group" vertex="1" connectable="0" parent="PFpXIr5WL7vh2AT7sFhG-12">
          <mxGeometry width="63.33333333333334" height="63.33333333333334" as="geometry" />
        </mxCell>
        <mxCell id="PFpXIr5WL7vh2AT7sFhG-14" value="20,30" style="ellipse;whiteSpace=wrap;html=1;aspect=fixed;fillColor=#E6FFCC;" vertex="1" parent="PFpXIr5WL7vh2AT7sFhG-13">
          <mxGeometry width="63.33333333333334" height="63.33333333333334" as="geometry" />
        </mxCell>
        <mxCell id="PFpXIr5WL7vh2AT7sFhG-15" value="" style="group" vertex="1" connectable="0" parent="PFpXIr5WL7vh2AT7sFhG-26">
          <mxGeometry y="156.66666666666674" width="63.33333333333334" height="63.33333333333334" as="geometry" />
        </mxCell>
        <mxCell id="PFpXIr5WL7vh2AT7sFhG-16" value="5,10" style="ellipse;whiteSpace=wrap;html=1;aspect=fixed;fillColor=#CCFF99;" vertex="1" parent="PFpXIr5WL7vh2AT7sFhG-15">
          <mxGeometry width="63.33333333333334" height="63.33333333333334" as="geometry" />
        </mxCell>
        <mxCell id="PFpXIr5WL7vh2AT7sFhG-17" value="" style="group" vertex="1" connectable="0" parent="PFpXIr5WL7vh2AT7sFhG-26">
          <mxGeometry x="165" y="156.66666666666674" width="63.33333333333334" height="63.33333333333334" as="geometry" />
        </mxCell>
        <mxCell id="PFpXIr5WL7vh2AT7sFhG-18" value="35,40" style="ellipse;whiteSpace=wrap;html=1;aspect=fixed;fillColor=#CCFF99;" vertex="1" parent="PFpXIr5WL7vh2AT7sFhG-17">
          <mxGeometry width="63.33333333333334" height="63.33333333333334" as="geometry" />
        </mxCell>
        <mxCell id="PFpXIr5WL7vh2AT7sFhG-19" value="" style="endArrow=none;html=1;rounded=0;entryX=0.262;entryY=0.933;entryDx=0;entryDy=0;entryPerimeter=0;exitX=0.649;exitY=0.02;exitDx=0;exitDy=0;exitPerimeter=0;" edge="1" parent="PFpXIr5WL7vh2AT7sFhG-26" source="PFpXIr5WL7vh2AT7sFhG-16" target="PFpXIr5WL7vh2AT7sFhG-14">
          <mxGeometry width="50" height="50" relative="1" as="geometry">
            <mxPoint x="58.33000000000004" y="156.67000000000007" as="sourcePoint" />
            <mxPoint x="98.33000000000004" y="90" as="targetPoint" />
          </mxGeometry>
        </mxCell>
        <mxCell id="PFpXIr5WL7vh2AT7sFhG-20" value="" style="endArrow=none;html=1;rounded=0;entryX=0.767;entryY=0.931;entryDx=0;entryDy=0;entryPerimeter=0;exitX=0.381;exitY=0.028;exitDx=0;exitDy=0;exitPerimeter=0;" edge="1" parent="PFpXIr5WL7vh2AT7sFhG-26" source="PFpXIr5WL7vh2AT7sFhG-18" target="PFpXIr5WL7vh2AT7sFhG-14">
          <mxGeometry width="50" height="50" relative="1" as="geometry">
            <mxPoint x="178.66000000000008" y="157" as="sourcePoint" />
            <mxPoint x="136.66000000000008" y="90" as="targetPoint" />
          </mxGeometry>
        </mxCell>
        <mxCell id="PFpXIr5WL7vh2AT7sFhG-21" value="" style="group" vertex="1" connectable="0" parent="PFpXIr5WL7vh2AT7sFhG-26">
          <mxGeometry x="85" y="156.67000000000007" width="63.33333333333334" height="63.33333333333334" as="geometry" />
        </mxCell>
        <mxCell id="PFpXIr5WL7vh2AT7sFhG-22" value="25" style="ellipse;whiteSpace=wrap;html=1;aspect=fixed;fillColor=#CCFF99;" vertex="1" parent="PFpXIr5WL7vh2AT7sFhG-21">
          <mxGeometry width="63.33333333333334" height="63.33333333333334" as="geometry" />
        </mxCell>
        <mxCell id="PFpXIr5WL7vh2AT7sFhG-23" value="" style="endArrow=none;html=1;rounded=0;entryX=0.529;entryY=0.995;entryDx=0;entryDy=0;exitX=0.5;exitY=0;exitDx=0;exitDy=0;entryPerimeter=0;" edge="1" parent="PFpXIr5WL7vh2AT7sFhG-26" source="PFpXIr5WL7vh2AT7sFhG-22" target="PFpXIr5WL7vh2AT7sFhG-14">
          <mxGeometry width="50" height="50" relative="1" as="geometry">
            <mxPoint x="90" y="181" as="sourcePoint" />
            <mxPoint x="143" y="110" as="targetPoint" />
          </mxGeometry>
        </mxCell>
        <mxCell id="PFpXIr5WL7vh2AT7sFhG-27" value="&lt;div&gt;子情况3b：与右兄弟合并&lt;/div&gt;&lt;div&gt;1、将父节点分隔关键字下移到当前节点&lt;/div&gt;&lt;div&gt;2、将右兄弟内容合并到当前节点&lt;/div&gt;&lt;div&gt;3、删除右兄弟&lt;/div&gt;" style="text;strokeColor=none;align=left;fillColor=none;html=1;verticalAlign=middle;whiteSpace=wrap;rounded=0;" vertex="1" parent="1">
          <mxGeometry x="114.17" y="1920" width="220" height="60" as="geometry" />
        </mxCell>
        <mxCell id="PFpXIr5WL7vh2AT7sFhG-41" value="" style="group" vertex="1" connectable="0" parent="1">
          <mxGeometry x="117.5" y="1710" width="228.33333333333343" height="200.00333333333333" as="geometry" />
        </mxCell>
        <mxCell id="PFpXIr5WL7vh2AT7sFhG-29" value="" style="group" vertex="1" connectable="0" parent="PFpXIr5WL7vh2AT7sFhG-41">
          <mxGeometry x="81.67000000000003" width="70" height="63.33333333333334" as="geometry" />
        </mxCell>
        <mxCell id="PFpXIr5WL7vh2AT7sFhG-30" value="" style="group" vertex="1" connectable="0" parent="PFpXIr5WL7vh2AT7sFhG-29">
          <mxGeometry width="63.33333333333334" height="63.33333333333334" as="geometry" />
        </mxCell>
        <mxCell id="PFpXIr5WL7vh2AT7sFhG-31" value="10,20" style="ellipse;whiteSpace=wrap;html=1;aspect=fixed;fillColor=#E6FFCC;" vertex="1" parent="PFpXIr5WL7vh2AT7sFhG-30">
          <mxGeometry width="63.33333333333334" height="63.33333333333334" as="geometry" />
        </mxCell>
        <mxCell id="PFpXIr5WL7vh2AT7sFhG-32" value="" style="group" vertex="1" connectable="0" parent="PFpXIr5WL7vh2AT7sFhG-41">
          <mxGeometry y="136.66666666666674" width="63.33333333333334" height="63.33333333333334" as="geometry" />
        </mxCell>
        <mxCell id="PFpXIr5WL7vh2AT7sFhG-33" value="5" style="ellipse;whiteSpace=wrap;html=1;aspect=fixed;fillColor=#CCFF99;" vertex="1" parent="PFpXIr5WL7vh2AT7sFhG-32">
          <mxGeometry width="63.33333333333334" height="63.33333333333334" as="geometry" />
        </mxCell>
        <mxCell id="PFpXIr5WL7vh2AT7sFhG-34" value="" style="group" vertex="1" connectable="0" parent="PFpXIr5WL7vh2AT7sFhG-41">
          <mxGeometry x="165.00000000000006" y="136.66666666666674" width="63.33333333333334" height="63.33333333333334" as="geometry" />
        </mxCell>
        <mxCell id="PFpXIr5WL7vh2AT7sFhG-35" value="25" style="ellipse;whiteSpace=wrap;html=1;aspect=fixed;fillColor=#CCFF99;" vertex="1" parent="PFpXIr5WL7vh2AT7sFhG-34">
          <mxGeometry width="63.33333333333334" height="63.33333333333334" as="geometry" />
        </mxCell>
        <mxCell id="PFpXIr5WL7vh2AT7sFhG-36" value="" style="endArrow=none;html=1;rounded=0;entryX=0.262;entryY=0.933;entryDx=0;entryDy=0;entryPerimeter=0;exitX=0.649;exitY=0.02;exitDx=0;exitDy=0;exitPerimeter=0;" edge="1" parent="PFpXIr5WL7vh2AT7sFhG-41" source="PFpXIr5WL7vh2AT7sFhG-33" target="PFpXIr5WL7vh2AT7sFhG-31">
          <mxGeometry width="50" height="50" relative="1" as="geometry">
            <mxPoint x="58.330000000000055" y="136.67000000000007" as="sourcePoint" />
            <mxPoint x="98.33000000000006" y="70" as="targetPoint" />
          </mxGeometry>
        </mxCell>
        <mxCell id="PFpXIr5WL7vh2AT7sFhG-37" value="" style="endArrow=none;html=1;rounded=0;entryX=0.767;entryY=0.931;entryDx=0;entryDy=0;entryPerimeter=0;exitX=0.381;exitY=0.028;exitDx=0;exitDy=0;exitPerimeter=0;" edge="1" parent="PFpXIr5WL7vh2AT7sFhG-41" source="PFpXIr5WL7vh2AT7sFhG-35" target="PFpXIr5WL7vh2AT7sFhG-31">
          <mxGeometry width="50" height="50" relative="1" as="geometry">
            <mxPoint x="178.66000000000003" y="137" as="sourcePoint" />
            <mxPoint x="136.66000000000003" y="70" as="targetPoint" />
          </mxGeometry>
        </mxCell>
        <mxCell id="PFpXIr5WL7vh2AT7sFhG-38" value="" style="group" vertex="1" connectable="0" parent="PFpXIr5WL7vh2AT7sFhG-41">
          <mxGeometry x="85.00000000000001" y="136.67000000000007" width="63.33333333333334" height="63.33333333333334" as="geometry" />
        </mxCell>
        <mxCell id="PFpXIr5WL7vh2AT7sFhG-39" value="15" style="ellipse;whiteSpace=wrap;html=1;aspect=fixed;fillColor=#CCFF99;" vertex="1" parent="PFpXIr5WL7vh2AT7sFhG-38">
          <mxGeometry width="63.33333333333334" height="63.33333333333334" as="geometry" />
        </mxCell>
        <mxCell id="PFpXIr5WL7vh2AT7sFhG-40" value="" style="endArrow=none;html=1;rounded=0;entryX=0.529;entryY=0.995;entryDx=0;entryDy=0;exitX=0.5;exitY=0;exitDx=0;exitDy=0;entryPerimeter=0;" edge="1" parent="PFpXIr5WL7vh2AT7sFhG-41" source="PFpXIr5WL7vh2AT7sFhG-39" target="PFpXIr5WL7vh2AT7sFhG-31">
          <mxGeometry width="50" height="50" relative="1" as="geometry">
            <mxPoint x="90.00000000000001" y="161" as="sourcePoint" />
            <mxPoint x="143" y="90" as="targetPoint" />
          </mxGeometry>
        </mxCell>
        <mxCell id="PFpXIr5WL7vh2AT7sFhG-55" value="" style="html=1;shadow=0;dashed=0;align=center;verticalAlign=middle;shape=mxgraph.arrows2.arrow;dy=0.67;dx=20;notch=0;" vertex="1" parent="1">
          <mxGeometry x="374.81" y="1790" width="110" height="20" as="geometry" />
        </mxCell>
        <mxCell id="PFpXIr5WL7vh2AT7sFhG-56" value="&lt;b&gt;删除15&lt;/b&gt;" style="text;strokeColor=none;align=center;fillColor=none;html=1;verticalAlign=middle;whiteSpace=wrap;rounded=0;" vertex="1" parent="1">
          <mxGeometry x="404.81" y="1770" width="50" height="20" as="geometry" />
        </mxCell>
        <mxCell id="PFpXIr5WL7vh2AT7sFhG-57" value="" style="group" vertex="1" connectable="0" parent="1">
          <mxGeometry x="490" y="1710" width="203.33333333333337" height="200" as="geometry" />
        </mxCell>
        <mxCell id="PFpXIr5WL7vh2AT7sFhG-43" value="" style="group" vertex="1" connectable="0" parent="PFpXIr5WL7vh2AT7sFhG-57">
          <mxGeometry x="70" width="70" height="63.33333333333334" as="geometry" />
        </mxCell>
        <mxCell id="PFpXIr5WL7vh2AT7sFhG-44" value="" style="group" vertex="1" connectable="0" parent="PFpXIr5WL7vh2AT7sFhG-43">
          <mxGeometry width="63.33333333333334" height="63.33333333333334" as="geometry" />
        </mxCell>
        <mxCell id="PFpXIr5WL7vh2AT7sFhG-45" value="10" style="ellipse;whiteSpace=wrap;html=1;aspect=fixed;fillColor=#E6FFCC;" vertex="1" parent="PFpXIr5WL7vh2AT7sFhG-44">
          <mxGeometry width="63.33333333333334" height="63.33333333333334" as="geometry" />
        </mxCell>
        <mxCell id="PFpXIr5WL7vh2AT7sFhG-46" value="" style="group" vertex="1" connectable="0" parent="PFpXIr5WL7vh2AT7sFhG-57">
          <mxGeometry y="136.66666666666674" width="63.33333333333334" height="63.33333333333334" as="geometry" />
        </mxCell>
        <mxCell id="PFpXIr5WL7vh2AT7sFhG-47" value="5" style="ellipse;whiteSpace=wrap;html=1;aspect=fixed;fillColor=#CCFF99;" vertex="1" parent="PFpXIr5WL7vh2AT7sFhG-46">
          <mxGeometry width="63.33333333333334" height="63.33333333333334" as="geometry" />
        </mxCell>
        <mxCell id="PFpXIr5WL7vh2AT7sFhG-48" value="" style="group" vertex="1" connectable="0" parent="PFpXIr5WL7vh2AT7sFhG-57">
          <mxGeometry x="140" y="136.66666666666674" width="63.33333333333334" height="63.33333333333334" as="geometry" />
        </mxCell>
        <mxCell id="PFpXIr5WL7vh2AT7sFhG-49" value="20,25" style="ellipse;whiteSpace=wrap;html=1;aspect=fixed;fillColor=#CCFF99;" vertex="1" parent="PFpXIr5WL7vh2AT7sFhG-48">
          <mxGeometry width="63.33333333333334" height="63.33333333333334" as="geometry" />
        </mxCell>
        <mxCell id="PFpXIr5WL7vh2AT7sFhG-50" value="" style="endArrow=none;html=1;rounded=0;entryX=0.262;entryY=0.933;entryDx=0;entryDy=0;entryPerimeter=0;exitX=0.649;exitY=0.02;exitDx=0;exitDy=0;exitPerimeter=0;" edge="1" parent="PFpXIr5WL7vh2AT7sFhG-57" source="PFpXIr5WL7vh2AT7sFhG-47" target="PFpXIr5WL7vh2AT7sFhG-45">
          <mxGeometry width="50" height="50" relative="1" as="geometry">
            <mxPoint x="38.33000000000004" y="136.67000000000007" as="sourcePoint" />
            <mxPoint x="78.33000000000004" y="70" as="targetPoint" />
          </mxGeometry>
        </mxCell>
        <mxCell id="PFpXIr5WL7vh2AT7sFhG-51" value="" style="endArrow=none;html=1;rounded=0;entryX=0.767;entryY=0.931;entryDx=0;entryDy=0;entryPerimeter=0;exitX=0.381;exitY=0.028;exitDx=0;exitDy=0;exitPerimeter=0;" edge="1" parent="PFpXIr5WL7vh2AT7sFhG-57" source="PFpXIr5WL7vh2AT7sFhG-49" target="PFpXIr5WL7vh2AT7sFhG-45">
          <mxGeometry width="50" height="50" relative="1" as="geometry">
            <mxPoint x="158.66000000000008" y="137" as="sourcePoint" />
            <mxPoint x="116.66000000000008" y="70" as="targetPoint" />
          </mxGeometry>
        </mxCell>
      </root>
    </mxGraphModel>
  </diagram>
</mxfile>
